<svg width="32" height="32" viewBox="0 0 32 32" fill="none" xmlns="http://www.w3.org/2000/svg">
<path d="M5.79066 25.2436C7.37258 24.1282 8.99098 23.2586 10.6459 22.6346C12.3008 22.0107 14.0855 21.6987 16 21.6987C17.9146 21.6987 19.7021 22.0107 21.3627 22.6346C23.0234 23.2586 24.6446 24.1282 26.2265 25.2436C27.3796 23.9281 28.2534 22.5004 28.8478 20.9606C29.4422 19.4208 29.7394 17.7673 29.7394 16C29.7394 12.1474 28.4126 8.8944 25.7591 6.2409C23.1056 3.5874 19.8526 2.26065 16 2.26065C12.1475 2.26065 8.89446 3.5874 6.24096 6.2409C3.58746 8.8944 2.26071 12.1474 2.26071 16C2.26071 17.7673 2.56075 19.4208 3.16083 20.9606C3.76091 22.5004 4.63753 23.9281 5.79066 25.2436ZM15.9942 17.0469C14.4881 17.0469 13.2201 16.53 12.1902 15.4962C11.1603 14.4624 10.6454 13.1925 10.6454 11.6864C10.6454 10.1804 11.1623 8.9124 12.1961 7.88248C13.2299 6.85256 14.4999 6.33761 16.0059 6.33761C17.512 6.33761 18.7799 6.85452 19.8098 7.88835C20.8397 8.92216 21.3547 10.1921 21.3547 11.6981C21.3547 13.2042 20.8378 14.4722 19.804 15.5021C18.7702 16.532 17.5002 17.0469 15.9942 17.0469ZM16.013 31.8333C13.8171 31.8333 11.757 31.4198 9.83271 30.5929C7.90848 29.7659 6.2299 28.6352 4.79696 27.2008C3.36401 25.7663 2.23408 24.0899 1.40716 22.1715C0.58022 20.2531 0.166748 18.1953 0.166748 15.9979C0.166748 13.8006 0.58022 11.7434 1.40716 9.8264C2.23408 7.90937 3.36478 6.23363 4.79925 4.79919C6.23369 3.36472 7.91011 2.23402 9.8285 1.4071C11.7469 0.58016 13.8047 0.166687 16.0021 0.166687C18.1994 0.166687 20.2566 0.58016 22.1736 1.4071C24.0907 2.23402 25.7664 3.36472 27.2008 4.79919C28.6353 6.23363 29.766 7.90966 30.5929 9.82727C31.4199 11.7449 31.8333 13.7981 31.8333 15.987C31.8333 18.183 31.4199 20.2431 30.5929 22.1673C29.766 24.0915 28.6353 25.7701 27.2008 27.2031C25.7664 28.636 24.0904 29.7659 22.1728 30.5929C20.2551 31.4198 18.2019 31.8333 16.013 31.8333ZM16 29.7393C17.5342 29.7393 19.0362 29.4945 20.5059 29.0048C21.9757 28.5151 23.3348 27.7585 24.5834 26.735C23.3348 25.8034 21.9871 25.0801 20.5401 24.5651C19.0932 24.0502 17.5798 23.7927 16 23.7927C14.4203 23.7927 12.9042 24.0475 11.452 24.5571C9.99965 25.0667 8.65812 25.7927 7.42737 26.735C8.66882 27.7585 10.0244 28.5151 11.4942 29.0048C12.9639 29.4945 14.4658 29.7393 16 29.7393ZM16.0015 14.953C16.9422 14.953 17.7205 14.6445 18.3366 14.0274C18.9527 13.4103 19.2607 12.6314 19.2607 11.6908C19.2607 10.7502 18.9522 9.97184 18.3351 9.35573C17.718 8.73962 16.9391 8.43156 15.9985 8.43156C15.0579 8.43156 14.2796 8.74012 13.6635 9.35723C13.0474 9.97431 12.7393 10.7532 12.7393 11.6938C12.7393 12.6344 13.0479 13.4127 13.665 14.0289C14.2821 14.645 15.0609 14.953 16.0015 14.953Z" fill="white" fill-opacity="0.75"/>
</svg>
