<svg width="59" height="78" viewBox="0 0 59 78" fill="none" xmlns="http://www.w3.org/2000/svg">
<rect x="2" y="2" width="55" height="74" rx="27.5" stroke="white" stroke-opacity="0.75" stroke-width="4"/>
<path d="M31.5 30C31.5 29.1716 30.8284 28.5 30 28.5C29.1716 28.5 28.5 29.1716 28.5 30L31.5 30ZM28.9393 59.0607C29.5251 59.6464 30.4749 59.6464 31.0607 59.0607L40.6066 49.5147C41.1924 48.9289 41.1924 47.9792 40.6066 47.3934C40.0208 46.8076 39.0711 46.8076 38.4853 47.3934L30 55.8787L21.5147 47.3934C20.9289 46.8076 19.9792 46.8076 19.3934 47.3934C18.8076 47.9792 18.8076 48.9289 19.3934 49.5147L28.9393 59.0607ZM28.5 30L28.5 58L31.5 58L31.5 30L28.5 30Z" fill="white" fill-opacity="0.75"/>
</svg>
