<svg width="48" height="48" viewBox="0 0 48 48" fill="none" xmlns="http://www.w3.org/2000/svg">
<mask id="mask0_20_63" style="mask-type:alpha" maskUnits="userSpaceOnUse" x="0" y="0" width="48" height="48">
<rect width="48" height="48" fill="#D9D9D9"/>
</mask>
<g mask="url(#mask0_20_63)">
<path d="M18.9577 30.8961C15.5649 30.8961 12.6917 29.7199 10.3381 27.3673C7.98454 25.0148 6.80774 22.1648 6.80774 18.8173C6.80774 15.4699 7.98402 12.6199 10.3366 10.2674C12.6891 7.91481 15.5428 6.73853 18.8975 6.73853C22.2523 6.73853 25.1055 7.91481 27.4571 10.2674C29.8087 12.6199 30.9845 15.4701 30.9845 18.8179C30.9845 20.2188 30.7448 21.5827 30.2653 22.9096C29.7858 24.2366 29.0922 25.4385 28.1845 26.5154L40.3615 38.6116C40.5846 38.8198 40.6993 39.093 40.7057 39.4312C40.7121 39.7694 40.5974 40.0532 40.3615 40.2827C40.1256 40.5121 39.8418 40.6269 39.51 40.6269C39.1783 40.6269 38.9018 40.5089 38.6807 40.2731L26.5538 28.1461C25.5589 29.0266 24.3987 29.705 23.0733 30.1815C21.7479 30.6579 20.3761 30.8961 18.9577 30.8961ZM18.9269 28.627C21.6588 28.627 23.9731 27.675 25.87 25.7712C27.7669 23.8673 28.7154 21.5494 28.7154 18.8173C28.7154 16.0853 27.7669 13.7673 25.87 11.8635C23.9731 9.95964 21.6588 9.00772 18.9269 9.00772C16.178 9.00772 13.8491 9.95964 11.9402 11.8635C10.0314 13.7673 9.07694 16.0853 9.07694 18.8173C9.07694 21.5494 10.0314 23.8673 11.9402 25.7712C13.8491 27.675 16.178 28.627 18.9269 28.627Z" fill="white" fill-opacity="0.75"/>
</g>
</svg>
